<svg xmlns="http://www.w3.org/2000/svg" width="720" height="1280" viewBox="0 0 720 1280" role="img" aria-labelledby="title desc">
  <title id="title">GymVault mobile dashboard preview</title>
  <desc id="desc">A mobile GymVault dashboard mockup showing revenue, attendance, and member quick actions.</desc>
  <defs>
    <linearGradient id="mobileBg" x1="0" y1="0" x2="1" y2="1">
      <stop offset="0%" stop-color="#111827" />
      <stop offset="100%" stop-color="#1d4ed8" />
    </linearGradient>
  </defs>
  <rect width="720" height="1280" fill="url(#mobileBg)" />
  <circle cx="120" cy="160" r="120" fill="#22c55e" fill-opacity="0.16" />
  <circle cx="620" cy="1160" r="150" fill="#a855f7" fill-opacity="0.18" />
  <rect x="70" y="70" width="580" height="1140" rx="46" fill="#f8fafc" fill-opacity="0.96" />
  <rect x="114" y="122" width="492" height="166" rx="28" fill="#111827" />
  <rect x="114" y="326" width="234" height="176" rx="28" fill="#dcfce7" />
  <rect x="372" y="326" width="234" height="176" rx="28" fill="#dbeafe" />
  <rect x="114" y="536" width="492" height="274" rx="32" fill="#eef2ff" />
  <rect x="114" y="848" width="492" height="132" rx="28" fill="#ffffff" />
  <rect x="114" y="1008" width="492" height="132" rx="28" fill="#ffffff" />
  <text x="150" y="182" fill="#ffffff" font-size="34" font-family="Arial, sans-serif" font-weight="700">GymVault</text>
  <text x="150" y="228" fill="#cbd5e1" font-size="20" font-family="Arial, sans-serif">Daily operations at a glance</text>
  <text x="148" y="392" fill="#065f46" font-size="22" font-family="Arial, sans-serif" font-weight="700">Collections</text>
  <text x="148" y="448" fill="#111827" font-size="38" font-family="Arial, sans-serif" font-weight="700">₹86k</text>
  <text x="406" y="392" fill="#1d4ed8" font-size="22" font-family="Arial, sans-serif" font-weight="700">Check-ins</text>
  <text x="406" y="448" fill="#111827" font-size="38" font-family="Arial, sans-serif" font-weight="700">127</text>
  <path d="M150 744 L220 676 L292 708 L366 622 L438 660 L510 600 L572 626" fill="none" stroke="#4f46e5" stroke-width="16" stroke-linecap="round" stroke-linejoin="round" />
  <rect x="150" y="886" width="180" height="52" rx="18" fill="#111827" />
  <rect x="390" y="886" width="180" height="52" rx="18" fill="#2563eb" />
  <rect x="150" y="1048" width="420" height="22" rx="11" fill="#cbd5e1" />
  <rect x="150" y="1088" width="352" height="22" rx="11" fill="#dbeafe" />
</svg>